<?xml version="1.0" encoding="utf-8"?>
<svg version="1.1" id="layer_1" xmlns="http://www.w3.org/2000/svg" xmlns:xlink="http://www.w3.org/1999/xlink" x="0px"
	 y="0px" viewBox="205 90 670 175" style="enable-background:new 205 90 670 175;" xml:space="preserve">
<style type="text/css">
	.st0{fill:#fff;}
	.st1{fill:url(#SVGID_1_);}
</style>
<g>
	<g>
		<path class="st0" d="M697.4,144.99c-5.71-3.06-12.15-4.58-19.29-4.55c-7.15,0.03-13.58,1.59-19.31,4.7
			c-5.73,3.1-10.2,7.37-13.42,12.78c-3.23,5.42-4.83,11.51-4.8,18.26c0.03,6.75,1.67,12.83,4.94,18.22
			c3.26,5.4,7.77,9.63,13.52,12.69c5.75,3.06,12.19,4.58,19.34,4.55c7.14-0.03,13.56-1.59,19.26-4.69
			c5.69-3.1,10.16-7.37,13.42-12.79c3.26-5.42,4.87-11.51,4.85-18.26c-0.03-6.75-1.69-12.83-4.99-18.23
			C707.63,152.27,703.12,148.05,697.4,144.99z M697.03,187.37c-1.86,3.35-4.42,5.97-7.69,7.85c-3.27,1.88-6.94,2.83-11,2.84
			c-4.07,0.02-7.74-0.9-11.03-2.76c-3.29-1.86-5.87-4.45-7.75-7.79c-1.88-3.34-2.83-7.14-2.85-11.4s0.9-8.07,2.76-11.42
			c1.86-3.35,4.42-5.97,7.69-7.85c3.27-1.88,6.94-2.83,11-2.85c4.06-0.01,7.74,0.91,11.02,2.76s5.87,4.45,7.75,7.79
			c1.88,3.34,2.83,7.14,2.85,11.4S698.88,184.02,697.03,187.37z"/>
		<g>
			<path class="st0" d="M426.29,181.86c-2.24-2.91-5.33-4.98-9.27-6.21c2.88-1.52,5.11-3.59,6.71-6.22c1.6-2.63,2.39-5.61,2.38-8.96
				c-0.02-5.51-2.28-9.86-6.79-13.05c-4.5-3.19-10.95-4.78-19.34-4.74l-29.42,0.11h-0.02c-2.26,0.01-4.07,1.79-4.18,4.03l0,0.42
				l0.23,60.03l0,0.3c0.08,2.24,1.88,4.02,4.13,4.07l0.16,0l31.33-0.12c8.98-0.03,15.81-1.68,20.49-4.95
				c4.67-3.26,7-7.91,6.98-13.94C429.65,188.36,428.52,184.77,426.29,181.86z M382.22,154.74l15.83-0.06
				c3.93-0.01,6.92,0.65,8.96,1.98c2.04,1.34,3.06,3.35,3.07,6.04s-1,4.72-3.03,6.11c-2.03,1.39-5.01,2.08-8.94,2.1l-15.83,0.06
				L382.22,154.74z M410.46,197.41c-2.13,1.39-5.29,2.09-9.48,2.1l-18.59,0.07l-0.06-17.01l18.59-0.07
				c8.46-0.03,12.7,2.8,12.72,8.51C413.64,193.89,412.59,196.03,410.46,197.41z"/>
		</g>
		<path class="st0" d="M609.32,188.59c4.52-1.98,8-4.83,10.44-8.55c2.45-3.71,3.66-8.13,3.64-13.24c-0.02-5.11-1.25-9.54-3.69-13.26
			c-2.44-3.73-5.91-6.6-10.41-8.61c-4.5-2.02-9.79-3.01-15.89-2.99l-25.51,0.1c-0.02,0-0.04-0.01-0.06-0.01
			c-0.02,0-0.04,0.01-0.06,0.01c-2.28,0.03-4.12,1.87-4.16,4.15c0,0.03-0.02,0.05-0.02,0.08c0,0.03,0.02,0.05,0.02,0.08l0.23,60.27
			c0,0.02-0.01,0.03-0.01,0.05c0,0.02,0.01,0.03,0.01,0.05c0.03,2.29,1.86,4.13,4.15,4.17c0.03,0,0.05,0.02,0.08,0.02
			c0.03,0,0.05-0.02,0.08-0.02l7.37-0.03c0.01,0,0.01,0,0.02,0c0.01,0,0.01,0,0.02,0c2.32-0.01,4.2-1.89,4.21-4.21
			c0-0.01,0-0.01,0-0.02c0-0.01,0-0.01,0-0.02l-0.06-14.94l13.87-0.05l0.79,0l12.08,17.31c0,0,0.61,0.94,1.59,1.37
			c0.98,0.43,1.96,0.43,1.96,0.43l6.54-0.02c0.07,0,0.14,0.04,0.21,0.04c0.08,0,0.14-0.04,0.22-0.04l7.86-0.03L609.32,188.59z
			 M592.66,178.92l-12.98,0.05l-0.09-24l12.98-0.05c4.79-0.02,8.43,1,10.93,3.06c2.5,2.06,3.76,5.02,3.77,8.89
			c0.01,3.8-1.22,6.76-3.71,8.86C601.08,177.84,597.45,178.9,592.66,178.92z"/>
		<path class="st0" d="M786.11,178.97c-2.41-2.68-5.28-4.64-8.63-5.87c-3.35-1.23-7.65-2.46-12.9-3.69
			c-5.05-1.09-8.81-2.21-11.27-3.35c-2.46-1.14-3.7-2.89-3.71-5.25c-0.01-2.36,1.05-4.27,3.17-5.72c2.13-1.45,5.42-2.18,9.88-2.2
			c5.02-0.02,10.05,1.13,15.09,3.37c0.1,0.05,0.2,0.1,0.31,0.15c0.48,0.19,0.99,0.31,1.53,0.31c1.63,0,3-0.95,3.71-2.3l0.08-0.19
			l0.14-0.36l0.05-0.13l1.61-4.01l0.05-0.11c0.2-0.49,0.32-1.02,0.32-1.58c0-1.43-0.75-2.63-1.83-3.39
			c-0.4-0.19-0.77-0.41-1.18-0.59c-2.14-0.95-4.41-1.79-6.93-2.41c-4.2-1.03-8.5-1.54-12.89-1.53c-6.3,0.02-11.62,0.99-15.97,2.91
			c-4.35,1.92-7.6,4.51-9.75,7.76c-2.15,3.26-3.22,6.88-3.21,10.88c0.02,4.59,1.23,8.26,3.63,11c2.4,2.75,5.28,4.73,8.63,5.97
			c3.35,1.23,7.65,2.46,12.9,3.69c3.41,0.77,6.12,1.49,8.12,2.13c2,0.65,3.64,1.51,4.93,2.59c1.28,1.08,1.93,2.44,1.93,4.07
			c0.01,2.23-1.07,4.02-3.23,5.37c-2.16,1.35-5.5,2.04-10.02,2.06c-4.07,0.01-8.13-0.63-12.2-1.92c-2.52-0.8-4.75-1.83-6.85-2.96
			c-0.07-0.04-0.13-0.08-0.19-0.11c-0.5-0.21-1.04-0.33-1.62-0.33c-1.62,0-2.99,0.95-3.7,2.29l-0.13,0.28l-0.04,0.09
			c-0.03,0.07-0.07,0.13-0.09,0.2l-1.78,3.99l-0.14,0.31c-0.18,0.47-0.3,0.97-0.3,1.5c0,1.59,0.92,2.93,2.22,3.65
			c0.09,0.05,0.17,0.1,0.26,0.15c0.07,0.04,0.15,0.08,0.22,0.11c0.01,0,0.02,0.01,0.02,0.01c2.43,1.29,5.23,2.43,8.47,3.36
			c5.09,1.46,10.35,2.17,15.79,2.15c6.29-0.03,11.63-1,16.02-2.91c4.38-1.92,7.67-4.5,9.85-7.76c2.18-3.25,3.27-6.85,3.26-10.78
			C789.73,185.29,788.51,181.66,786.11,178.97z"/>
		<path class="st0" d="M862,149.64l-0.02-4.32l0-0.32c-0.09-2.23-1.88-4.01-4.12-4.05l-0.16,0l-51.47,0.2c-0.01,0-0.01,0-0.02,0
			c-0.01,0-0.01,0-0.02,0c-2.3,0.01-4.16,1.86-4.2,4.16c0,0.03-0.02,0.05-0.02,0.08c0,0.03,0.02,0.05,0.02,0.08l0.02,4.39
			c0,0.02-0.01,0.04-0.01,0.06c0,0.02,0.01,0.04,0.01,0.06c0.03,2.29,1.88,4.14,4.18,4.17c0.02,0,0.03,0.01,0.05,0.01
			c0.02,0,0.03-0.01,0.05-0.01l17.77-0.07l0.2,51.62v0c0,0,0,0,0,0c0,2.31,1.86,4.17,4.16,4.22c0.03,0,0.05,0.02,0.08,0.02
			c0.03,0,0.05-0.02,0.08-0.02l7.16-0.03l0.44,0c2.22-0.12,4-1.93,4.01-4.18c0,0,0-0.01,0-0.01c0,0,0-0.01,0-0.01l-0.2-51.68
			l17.62-0.07l0.36,0c2.22-0.1,4-1.89,4.04-4.12L862,149.64z"/>
		<path class="st0" d="M544.63,150.62l-0.02-4.1l0-0.32c-0.09-2.23-1.88-4.01-4.13-4.06l-0.16,0l-43.43,0.17l-0.18,0
			c-2.27,0.05-4.08,1.87-4.13,4.14l0,0.16l0.23,60.32c0,0,0,0,0,0c0,0,0,0,0,0l0,0.06h0.01c0.03,2.28,1.86,4.12,4.15,4.16l0.16,0
			l7.18-0.03l0.44,0c2.19-0.12,3.94-1.88,3.99-4.09l0-0.2l-0.03-7.03l-0.05-13.77l14.35-0.05l2.79-0.01l10.4-0.04
			c0.03,0,0.05,0.02,0.08,0.02c0.03,0,0.05-0.02,0.08-0.02c2.29-0.05,4.14-1.9,4.15-4.21c0,0,0-0.01,0-0.01c0,0,0-0.01,0-0.01
			l-0.02-4.22c0-0.03,0.02-0.06,0.02-0.09c0-0.03-0.02-0.06-0.02-0.1c-0.05-2.29-1.91-4.14-4.22-4.14l-27.66,0.1l-0.07-18.19
			l31.81-0.12l0.1,0c2.29-0.03,4.12-1.86,4.17-4.15c0-0.03,0.02-0.05,0.02-0.08C544.65,150.67,544.63,150.65,544.63,150.62z"/>
		<path class="st0" d="M467.38,207l-0.23-60.34c0-0.01,0-0.01,0-0.01s0-0.01,0-0.02c-0.01-2.3-1.86-4.16-4.15-4.2h-7.56v0.03
			c-2.31,0-4.18,1.86-4.22,4.16c0,0.03-0.02,0.05-0.02,0.08c0,0.03,0.02,0.05,0.02,0.08l0.23,60.19c0,0.04-0.02,0.07-0.02,0.11
			c0,0.04,0.02,0.07,0.02,0.11c0.06,2.26,1.87,4.06,4.13,4.11l0.16,0l7.2-0.03l0.44,0c2.2-0.12,3.95-1.89,3.99-4.11
			c0-0.03,0.02-0.05,0.02-0.08C467.39,207.06,467.38,207.03,467.38,207z"/>
	</g>
	<linearGradient id="SVGID_1_" gradientUnits="userSpaceOnUse" x1="300.1003" y1="102.0207" x2="206.9112" y2="261.63">
		<stop  offset="0" style="stop-color:#00C7FF"/>
		<stop  offset="0.1262" style="stop-color:#0FA2F6"/>
		<stop  offset="0.4052" style="stop-color:#3545E1"/>
		<stop  offset="0.6026" style="stop-color:#5100D1"/>
		<stop  offset="0.6722" style="stop-color:#4803BE"/>
		<stop  offset="0.8131" style="stop-color:#310B8D"/>
		<stop  offset="1" style="stop-color:#0F1644"/>
	</linearGradient>
	<path class="st1" d="M322.23,187.48c-0.73-0.03-1.4-0.05-2.26,0.89c-1.68,1.84-3.48,3.58-5.46,5.18l-1,0.8l-0.32,0.25
		c-0.58,0.49-0.81,1.05-0.71,1.78c0.03,0.19,0.07,0.36,0.11,0.54c0.05,0.18,0.09,0.36,0.14,0.54c0.17,0.63,0.35,1.25,0.48,1.86
		l0.03,0.11c0.19,0.88,0.36,1.77,0.5,2.66l0.06,0.35c0.11,0.78,0.21,1.61,0.28,2.47l0.02,0.21c0.01,0.11,0.02,0.22,0.03,0.33
		c0.08,1.06,0.11,2.04,0.11,2.98c0,22.92-18.65,41.58-41.58,41.58h-50.94h-0.07c-1.42-0.02-2.56-1.16-2.58-2.57v-0.08v-43.88v-0.06
		c0.02-1.42,1.17-2.57,2.59-2.58h0.05h50.95c1.29,0,2.65-0.06,4.17-0.17l0.49-0.03c1.25-0.1,2.53-0.26,3.91-0.48l0.59-0.09
		c1.29-0.21,2.57-0.48,3.82-0.78l0.46-0.12c1.35-0.34,2.65-0.71,3.86-1.11l0.11-0.04c2.66-0.89,5.28-1.99,7.79-3.28
		c1.23-0.63,2.46-1.32,3.67-2.07l0.1-0.06c1.2-0.74,2.37-1.53,3.46-2.32l3.18-2.5c3.92-3.16,7.24-6.82,9.92-10.93l0.1-0.12
		c0.3-0.45,0.61-0.96,0.93-1.47l0.32-0.52c5.48-8.78,8.38-18.87,8.38-29.16c0-30.47-24.79-55.26-55.26-55.26h-60.31h-0.32
		c-3.67,0.09-6.61,3.05-6.65,6.73v0.13v62.74c0,0.02-0.01,0.04-0.01,0.06v0.13c0,0.02,0.01,0.04,0.01,0.06
		c0.07,3.7,3.06,6.68,6.78,6.69h0.04h60.46c6.41,0,12.59,1.46,18.37,4.33c0.03,0.01,0.05,0.03,0.08,0.04
		c0.31,0.13,0.64,0.2,0.99,0.2c0.61,0,1.14-0.24,1.58-0.59c0.12-0.1,0.24-0.21,0.36-0.31c2.69-2.4,5.13-5.12,6.85-7.5
		c0.28-0.39,0.38-0.83,0.29-1.28c-0.09-0.44-0.29-0.78-0.61-0.97c0,0,0.01-0.01,0.01-0.01c-0.16-0.1-0.33-0.18-0.5-0.27
		c-0.72-0.41-1.44-0.81-2.18-1.19c-0.44-0.23-0.88-0.44-1.32-0.65c-0.49-0.23-0.98-0.46-1.48-0.68c-0.81-0.36-1.62-0.7-2.44-1.02
		c-0.11-0.04-0.22-0.09-0.34-0.13c-1.05-0.4-2.11-0.77-3.18-1.1c0,0-0.01,0-0.01-0.01c0,0,0,0,0,0c-5.31-1.66-10.85-2.55-16.47-2.55
		h-50.89h-0.2c-1.39-0.05-2.5-1.18-2.52-2.58v-0.05v-43.88v-0.11c0.03-1.42,1.18-2.56,2.61-2.56h0.01h50.99c1.01,0,2,0.07,2.96,0.15
		l0.14,0.01c21.57,1.61,38.47,19.8,38.47,41.42c0,5.55-1.09,10.95-3.24,16.06c-0.61,1.45-1.31,2.87-2.07,4.23l-0.07,0.11
		c-2.7,4.23-5.85,8.01-9.42,11.3c-0.14,0.13-0.28,0.25-0.42,0.37l-0.28,0.24c-1.52,1.23-3.08,2.33-4.65,3.28
		c-6.48,3.91-13.89,5.98-21.44,5.98h-60.43c-0.01,0-0.03-0.01-0.04-0.01s-0.03,0.01-0.04,0.01c-3.71,0.02-6.69,3-6.76,6.69
		c0,0.02-0.01,0.04-0.01,0.06v0.13c0,0.02,0.01,0.04,0.01,0.06v62.71c0,0.02-0.01,0.04-0.01,0.07c0,0.02,0.01,0.04,0.01,0.07
		c0.04,3.74,3.06,6.76,6.81,6.76h60.46c30.47,0,55.26-24.79,55.26-55.26c0-6.56-1.16-12.97-3.45-19.11
		C324.18,188.52,323.58,187.68,322.23,187.48z"/>
</g>
</svg>
